# xmcd CD database file
#
# Track frame offsets:
#	150
#	28711
#	54250
#	76386
#	98469
#	115641
#	134767
#	156172
#	170222
#	215338
#	234075
#	261588
#	282295
#
# Disc length: 3979 seconds
#
# Revision: 0
# Processed by: cddbd v1.5.2PL0 Copyright (c) Steve Scherf et al.
# Submitted via: CDex 1.51
#
DISCID=af0f890d
DTITLE=Blue Note - A Story Of Jazz - 'Round Midnight CD3
DYEAR=2006
DGENRE=Jazz
TTITLE0=Sure Thing - St Germain
TTITLE1=Tukka Yoot's Riddim - Us3
TTITLE2=Wanin' Moon - Nicola Conte
TTITLE3=The Beat Goes On (Live) - Buddy Rich Big Band
TTITLE4=The Girl From Ipanema (Live) - Lou Rawls
TTITLE5=Besame Mucho - Tania Maria
TTITLE6=Dubophone (Live 2006) (Avec Nya) - Erik Truffaz
TTITLE7=The Nearness Of You - Norah Jones
TTITLE8=Spain (With Introduction) (Live) - Bobby McFerrin
TTITLE9=Time After Time - Cassandra Wilson
TTITLE10=Nature Boy - Kurt Elling
TTITLE11=Doin' Something - Soulive feat Black Thought Of The Roots
TTITLE12='Round Midnight - Sarah Vaughan
EXTD=YEAR: 2006
EXTT0=
EXTT1=
EXTT2=
EXTT3=
EXTT4=
EXTT5=
EXTT6=
EXTT7=
EXTT8=
EXTT9=
EXTT10=
EXTT11=
EXTT12=
PLAYORDER=
